<svg width="200" height="32" viewBox="0 0 200 32" fill="none" xmlns="http://www.w3.org/2000/svg">
<g clip-path="url(#clip0_1472_72183)">
<path fill-rule="evenodd" clip-rule="evenodd" d="M21.7068 9.46286C21.8174 9.68715 21.9787 9.88267 22.1778 10.034C22.3795 10.1865 22.6129 10.2918 22.8608 10.3419L30.6725 11.9217C30.9792 11.9813 31.2623 12.1277 31.4884 12.3433C31.7144 12.559 31.8739 12.835 31.9479 13.1385C32.0189 13.4407 32.0004 13.7569 31.8946 14.0487C31.7888 14.3405 31.6004 14.5952 31.3523 14.7816L25.2743 19.3923C25.0372 19.5699 24.8539 19.8096 24.7447 20.0849C24.6363 20.3587 24.6067 20.6573 24.6595 20.947L26.2994 30.0746C26.3533 30.379 26.3179 30.6925 26.1973 30.9771C26.0768 31.2617 25.8763 31.5053 25.6201 31.6783C25.361 31.8548 25.0578 31.9555 24.7446 31.9692C24.4314 31.983 24.1206 31.9092 23.847 31.7561L16.8249 27.8098C16.5733 27.669 16.2898 27.595 16.0015 27.595C15.7132 27.595 15.4297 27.669 15.1781 27.8098L8.15546 31.7561C7.88213 31.9097 7.5713 31.9838 7.25808 31.97C6.94486 31.9563 6.64174 31.8552 6.38291 31.6783C6.12674 31.5053 5.92621 31.2617 5.80564 30.9771C5.68507 30.6925 5.64963 30.379 5.7036 30.0746L7.34351 20.9486C7.39623 20.6589 7.36668 20.3603 7.25824 20.0865C7.14907 19.8112 6.96578 19.5715 6.72868 19.3939L0.650682 14.7832C0.402592 14.5967 0.214145 14.3421 0.108371 14.0503C0.00259699 13.7585 -0.015918 13.4423 0.0550407 13.1401C0.129077 12.8367 0.288511 12.5608 0.514462 12.3451C0.740413 12.1295 1.02342 11.9831 1.32999 11.9232L9.14057 10.3435C9.38841 10.2938 9.62175 10.1885 9.82307 10.0356C10.0222 9.88413 10.1836 9.68865 10.2946 9.46445L14.5131 0.933008C14.6527 0.658175 14.8656 0.427345 15.1283 0.266111C15.391 0.104876 15.6933 0.0195312 16.0015 0.0195312C16.3097 0.0195312 16.6119 0.104876 16.8746 0.266111C17.1373 0.427345 17.3503 0.658175 17.4898 0.933008L21.7068 9.46286Z" fill="#F1C748"/>
</g>
<g clip-path="url(#clip1_1472_72183)">
<path fill-rule="evenodd" clip-rule="evenodd" d="M63.7068 9.46286C63.8174 9.68715 63.9787 9.88267 64.1778 10.034C64.3795 10.1865 64.6129 10.2918 64.8608 10.3419L72.6725 11.9217C72.9792 11.9813 73.2623 12.1277 73.4884 12.3433C73.7144 12.559 73.8739 12.835 73.9479 13.1385C74.0189 13.4407 74.0004 13.7569 73.8946 14.0487C73.7888 14.3405 73.6004 14.5952 73.3523 14.7816L67.2743 19.3923C67.0372 19.5699 66.8539 19.8096 66.7447 20.0849C66.6363 20.3587 66.6067 20.6573 66.6595 20.947L68.2994 30.0746C68.3533 30.379 68.3179 30.6925 68.1973 30.9771C68.0768 31.2617 67.8763 31.5053 67.6201 31.6783C67.361 31.8548 67.0578 31.9555 66.7446 31.9692C66.4314 31.983 66.1206 31.9092 65.847 31.7561L58.8249 27.8098C58.5733 27.669 58.2898 27.595 58.0015 27.595C57.7132 27.595 57.4297 27.669 57.1781 27.8098L50.1555 31.7561C49.8821 31.9097 49.5713 31.9838 49.2581 31.97C48.9449 31.9563 48.6417 31.8552 48.3829 31.6783C48.1267 31.5053 47.9262 31.2617 47.8056 30.9771C47.6851 30.6925 47.6496 30.379 47.7036 30.0746L49.3435 20.9486C49.3962 20.6589 49.3667 20.3603 49.2582 20.0865C49.1491 19.8112 48.9658 19.5715 48.7287 19.3939L42.6507 14.7832C42.4026 14.5967 42.2141 14.3421 42.1084 14.0503C42.0026 13.7585 41.9841 13.4423 42.055 13.1401C42.1291 12.8367 42.2885 12.5608 42.5145 12.3451C42.7404 12.1295 43.0234 11.9831 43.33 11.9232L51.1406 10.3435C51.3884 10.2938 51.6218 10.1885 51.8231 10.0356C52.0222 9.88413 52.1836 9.68865 52.2946 9.46445L56.5131 0.933008C56.6527 0.658175 56.8656 0.427345 57.1283 0.266111C57.391 0.104876 57.6933 0.0195312 58.0015 0.0195312C58.3097 0.0195312 58.6119 0.104876 58.8746 0.266111C59.1373 0.427345 59.3503 0.658175 59.4898 0.933008L63.7068 9.46286Z" fill="#F1C748"/>
</g>
<g clip-path="url(#clip2_1472_72183)">
<path fill-rule="evenodd" clip-rule="evenodd" d="M105.707 9.46286C105.817 9.68715 105.979 9.88267 106.178 10.034C106.38 10.1865 106.613 10.2918 106.861 10.3419L114.672 11.9217C114.979 11.9813 115.262 12.1277 115.488 12.3433C115.714 12.559 115.874 12.835 115.948 13.1385C116.019 13.4407 116 13.7569 115.895 14.0487C115.789 14.3405 115.6 14.5952 115.352 14.7816L109.274 19.3923C109.037 19.5699 108.854 19.8096 108.745 20.0849C108.636 20.3587 108.607 20.6573 108.659 20.947L110.299 30.0746C110.353 30.379 110.318 30.6925 110.197 30.9771C110.077 31.2617 109.876 31.5053 109.62 31.6783C109.361 31.8548 109.058 31.9555 108.745 31.9692C108.431 31.983 108.121 31.9092 107.847 31.7561L100.825 27.8098C100.573 27.669 100.29 27.595 100.001 27.595C99.7132 27.595 99.4297 27.669 99.1781 27.8098L92.1555 31.7561C91.8821 31.9097 91.5713 31.9838 91.2581 31.97C90.9449 31.9563 90.6417 31.8552 90.3829 31.6783C90.1267 31.5053 89.9262 31.2617 89.8056 30.9771C89.6851 30.6925 89.6496 30.379 89.7036 30.0746L91.3435 20.9486C91.3962 20.6589 91.3667 20.3603 91.2582 20.0865C91.1491 19.8112 90.9658 19.5715 90.7287 19.3939L84.6507 14.7832C84.4026 14.5967 84.2141 14.3421 84.1084 14.0503C84.0026 13.7585 83.9841 13.4423 84.055 13.1401C84.1291 12.8367 84.2885 12.5608 84.5145 12.3451C84.7404 12.1295 85.0234 11.9831 85.33 11.9232L93.1406 10.3435C93.3884 10.2938 93.6218 10.1885 93.8231 10.0356C94.0222 9.88413 94.1836 9.68865 94.2946 9.46445L98.5131 0.933008C98.6527 0.658175 98.8656 0.427345 99.1283 0.266111C99.391 0.104876 99.6933 0.0195312 100.001 0.0195312C100.31 0.0195312 100.612 0.104876 100.875 0.266111C101.137 0.427345 101.35 0.658175 101.49 0.933008L105.707 9.46286Z" fill="#F1C748"/>
</g>
<g clip-path="url(#clip3_1472_72183)">
<path fill-rule="evenodd" clip-rule="evenodd" d="M147.707 9.46286C147.817 9.68715 147.979 9.88267 148.178 10.034C148.38 10.1865 148.613 10.2918 148.861 10.3419L156.672 11.9217C156.979 11.9813 157.262 12.1277 157.488 12.3433C157.714 12.559 157.874 12.835 157.948 13.1385C158.019 13.4407 158 13.7569 157.895 14.0487C157.789 14.3405 157.6 14.5952 157.352 14.7816L151.274 19.3923C151.037 19.5699 150.854 19.8096 150.745 20.0849C150.636 20.3587 150.607 20.6573 150.659 20.947L152.299 30.0746C152.353 30.379 152.318 30.6925 152.197 30.9771C152.077 31.2617 151.876 31.5053 151.62 31.6783C151.361 31.8548 151.058 31.9555 150.745 31.9692C150.431 31.983 150.121 31.9092 149.847 31.7561L142.825 27.8098C142.573 27.669 142.29 27.595 142.001 27.595C141.713 27.595 141.43 27.669 141.178 27.8098L134.155 31.7561C133.882 31.9097 133.571 31.9838 133.258 31.97C132.945 31.9563 132.642 31.8552 132.383 31.6783C132.127 31.5053 131.926 31.2617 131.806 30.9771C131.685 30.6925 131.65 30.379 131.704 30.0746L133.344 20.9486C133.396 20.6589 133.367 20.3603 133.258 20.0865C133.149 19.8112 132.966 19.5715 132.729 19.3939L126.651 14.7832C126.403 14.5967 126.214 14.3421 126.108 14.0503C126.003 13.7585 125.984 13.4423 126.055 13.1401C126.129 12.8367 126.289 12.5608 126.514 12.3451C126.74 12.1295 127.023 11.9831 127.33 11.9232L135.141 10.3435C135.388 10.2938 135.622 10.1885 135.823 10.0356C136.022 9.88413 136.184 9.68865 136.295 9.46445L140.513 0.933008C140.653 0.658175 140.866 0.427345 141.128 0.266111C141.391 0.104876 141.693 0.0195312 142.001 0.0195312C142.31 0.0195312 142.612 0.104876 142.875 0.266111C143.137 0.427345 143.35 0.658175 143.49 0.933008L147.707 9.46286Z" fill="#F1C748"/>
</g>
<g clip-path="url(#clip4_1472_72183)">
<path d="M169.778 14.9136C169.447 14.6675 169.202 14.3242 169.077 13.9318C168.952 13.5394 168.952 13.1175 169.079 12.7255C169.205 12.3334 169.451 11.9907 169.782 11.7455C170.113 11.5003 170.513 11.3648 170.924 11.3581L178.924 11.0558C178.964 11.0531 179.001 11.0391 179.033 11.0154C179.065 10.9918 179.089 10.9595 179.102 10.9225L181.867 3.45585C182.006 3.07597 182.258 2.74795 182.589 2.5162C182.921 2.28445 183.316 2.16016 183.72 2.16016C184.124 2.16016 184.519 2.28445 184.851 2.5162C185.182 2.74795 185.434 3.07597 185.573 3.45585L188.329 10.9492C188.342 10.9862 188.367 11.0185 188.398 11.0421C188.43 11.0658 188.467 11.0798 188.507 11.0825L196.507 11.3847C196.919 11.3915 197.318 11.5269 197.649 11.7722C197.98 12.0174 198.226 12.36 198.353 12.7521C198.479 13.1442 198.48 13.566 198.354 13.9584C198.229 14.3508 197.984 14.6942 197.653 14.9403L191.378 19.8736C191.345 19.8975 191.321 19.9309 191.308 19.969C191.296 20.0072 191.295 20.0484 191.307 20.087L193.467 27.7403C193.542 28.032 193.551 28.3371 193.491 28.6324C193.431 28.9277 193.304 29.2054 193.121 29.4445C192.937 29.6836 192.702 29.8778 192.432 30.0122C192.163 30.1466 191.866 30.2178 191.564 30.2203C191.172 30.2199 190.788 30.1023 190.462 29.8825L183.831 25.4381C183.798 25.4155 183.76 25.4034 183.72 25.4034C183.68 25.4034 183.642 25.4155 183.609 25.4381L176.978 29.8825C176.642 30.1101 176.245 30.2289 175.839 30.2226C175.434 30.2162 175.04 30.0852 174.712 29.8472C174.384 29.6092 174.137 29.2759 174.004 28.8926C173.872 28.5092 173.861 28.0945 173.973 27.7047L176.151 20.0247C176.161 19.9861 176.16 19.9453 176.148 19.9074C176.135 19.8695 176.111 19.8361 176.08 19.8114L169.778 14.9136ZM183.707 23.6603C184.1 23.6601 184.484 23.7778 184.809 23.9981L191.449 28.4425C191.482 28.4681 191.523 28.482 191.566 28.4824C191.608 28.4827 191.649 28.4694 191.683 28.4444C191.717 28.4194 191.742 28.384 191.754 28.3436C191.767 28.3033 191.765 28.26 191.751 28.2203L189.573 20.5403C189.462 20.167 189.465 19.7691 189.58 19.3972C189.696 19.0252 189.919 18.696 190.222 18.4514L196.533 13.5181C196.568 13.494 196.593 13.4596 196.606 13.42C196.62 13.3803 196.62 13.3374 196.607 13.2976C196.594 13.2578 196.569 13.2232 196.535 13.1989C196.501 13.1746 196.46 13.1618 196.418 13.1625L188.418 12.8603C188.03 12.8392 187.656 12.7039 187.345 12.4714C187.033 12.239 186.797 11.9197 186.667 11.5536L183.911 4.06029C183.901 4.0196 183.876 3.98389 183.842 3.95949C183.808 3.93508 183.766 3.92356 183.724 3.92696L183.707 23.6603Z" fill="#F1C748"/>
</g>
<defs>
<clipPath id="clip0_1472_72183">
<rect width="32" height="32" fill="white"/>
</clipPath>
<clipPath id="clip1_1472_72183">
<rect width="32" height="32" fill="white" transform="translate(42)"/>
</clipPath>
<clipPath id="clip2_1472_72183">
<rect width="32" height="32" fill="white" transform="translate(84)"/>
</clipPath>
<clipPath id="clip3_1472_72183">
<rect width="32" height="32" fill="white" transform="translate(126)"/>
</clipPath>
<clipPath id="clip4_1472_72183">
<rect width="32" height="32" fill="white" transform="matrix(-1 0 0 1 200 0)"/>
</clipPath>
</defs>
</svg>
