<svg width="55" height="59" viewBox="0 0 55 59" fill="none" xmlns="http://www.w3.org/2000/svg">
<path d="M52.8988 2.13747C52.0923 2.13747 51.1513 2.13747 50.3448 2.13747C44.8338 2.42755 39.5915 3.73288 34.6181 6.34354C28.5694 9.38932 23.4616 13.7404 19.4291 19.5419C16.6064 23.4579 14.5901 27.809 13.1115 32.4502C12.9771 32.7402 13.1115 32.8853 13.2459 33.0303C14.4557 34.3357 15.6654 35.641 16.8752 36.9463C17.0096 37.0914 17.144 37.3814 17.144 37.6715C17.144 37.9616 17.0096 38.2517 16.7408 38.3967C16.4719 38.5417 16.0687 38.5417 15.9343 38.2517C15.2622 37.5265 14.7245 36.9463 14.0524 36.2211C13.2459 35.3509 12.5739 34.4807 11.7674 33.7555C11.4985 33.4654 11.3641 33.0303 11.4985 32.5952C13.2459 26.9388 15.7999 21.7174 19.4291 17.0763C23.0583 12.2901 27.4941 8.51909 32.4675 5.76339C37.0376 3.15273 42.011 1.55733 47.1189 0.832141C49.2695 0.542067 51.4202 0.39703 53.5708 0.542067C54.2429 0.542067 54.3773 0.832141 54.5117 1.55733C54.7806 10.9847 52.6299 19.6869 47.9254 27.809C43.2208 35.786 36.7688 41.7325 28.7038 45.5035C27.4941 46.0836 26.1499 46.5188 24.8057 47.0989C24.4025 47.2439 24.1337 47.2439 23.8648 46.8088C22.5207 45.3585 21.0421 43.7631 19.6979 42.3127C19.4291 42.0226 19.2947 41.5875 19.5635 41.1524C19.8323 40.7173 20.37 40.7173 20.7733 41.1524C21.983 42.4577 23.1928 43.7631 24.4025 45.0684C24.6713 45.3585 24.8057 45.3585 25.0746 45.2134C30.9889 43.0379 36.2311 39.557 40.6669 34.9158C45.9091 29.4044 49.4039 22.8777 51.4202 15.4809C52.4955 11.4198 53.0332 7.21376 53.0332 2.86266C53.0332 2.57258 52.8988 2.42755 52.8988 2.13747Z" fill="#FF0000"/>
<path d="M45.5062 19.1067C45.5062 24.038 41.877 27.954 37.3068 27.954C32.7367 27.954 29.1074 24.038 29.1074 19.1067C29.1074 14.3205 32.7367 10.2595 37.1724 10.2595C41.877 10.2595 45.5062 14.1755 45.5062 19.1067ZM43.8932 19.2518C43.8932 15.1907 40.9361 11.9999 37.1724 11.9999C33.4087 11.9999 30.4516 15.1907 30.4516 19.2518C30.4516 23.3128 33.4087 26.5036 37.1724 26.5036C40.9361 26.3586 43.8932 23.1678 43.8932 19.2518Z" fill="#FF0000"/>
<path d="M24.9404 56.2362C25.8813 55.6561 26.8222 54.9309 27.6287 54.2057C30.3171 51.595 31.7956 48.4042 32.4677 44.6333C32.6021 44.0531 32.871 43.7631 33.2742 43.7631C33.8119 43.7631 34.0807 44.1982 34.0807 44.7783C33.9463 45.5035 33.8119 46.3737 33.5431 47.0989C32.0645 52.0302 29.3762 55.6561 25.2093 58.1217C24.2683 58.7019 23.8651 58.4118 23.7307 57.3965C23.193 54.3508 22.6553 51.1599 22.1177 48.1142C22.1177 47.8241 22.1177 47.534 22.1177 47.389C22.2521 47.0989 22.5209 46.9539 22.9242 46.9539C23.193 46.9539 23.4618 47.2439 23.5963 47.534C23.7307 48.4042 23.8651 49.2745 24.1339 50.2897C24.2683 52.3202 24.6716 54.2057 24.9404 56.2362Z" fill="#FF0000"/>
<path d="M2.76164 32.3051C3.56814 32.4501 4.37464 32.5951 5.04672 32.7402C6.92855 33.1753 8.81037 33.4654 10.5578 33.9005C10.6922 33.9005 10.6922 33.9005 10.8266 33.9005C11.2299 34.0455 11.4987 34.4806 11.3643 34.9157C11.2299 35.3508 10.961 35.6409 10.4234 35.4959C9.34804 35.2058 8.13829 35.0608 7.06296 34.7707C5.31555 34.3356 3.56814 34.0455 1.68631 33.6104C1.55189 33.6104 1.55189 33.6104 1.41748 33.6104C0.745396 33.4654 0.610979 33.0303 0.879812 32.3051C1.68631 30.7097 2.62722 29.1143 3.83697 27.8089C6.39088 24.9082 9.48246 23.3128 12.9773 22.4426C13.1117 22.4426 13.2461 22.4426 13.2461 22.2975C13.6494 22.1525 14.0526 22.4426 14.187 22.8777C14.3214 23.3128 14.0526 23.7479 13.5149 23.8929C12.7084 24.183 11.7675 24.328 10.961 24.6181C7.46621 25.9234 4.77788 28.244 2.76164 31.5799C2.89606 32.015 2.89606 32.16 2.76164 32.3051Z" fill="#FF0000"/>
<path d="M12.3052 45.2134C12.4396 45.0684 12.574 44.7783 12.7084 44.6332C15.2623 41.8775 17.6818 39.2669 20.2357 36.5112C21.1767 35.4959 21.9832 34.6257 22.9241 33.6104C23.3273 33.1753 23.7306 33.1753 24.1338 33.4654C24.4026 33.7555 24.4026 34.3356 23.9994 34.7707C21.0422 37.9615 18.0851 41.2974 14.9935 44.4882C14.5903 44.9233 14.187 45.5035 13.6493 45.9386C13.3805 46.2287 13.1117 46.2287 12.8428 46.0836C12.4396 45.9386 12.3052 45.6485 12.3052 45.2134Z" fill="#FF0000"/>
<path d="M8.81016 48.9843C9.07899 49.1293 9.34782 49.2744 9.48224 49.5644C9.61665 49.8545 9.48224 50.1446 9.34782 50.4347C9.2134 50.5797 8.94457 50.8698 8.81016 51.1598C7.19716 52.9003 5.58416 54.7858 3.83675 56.5262C3.56792 56.6712 3.4335 56.8163 3.16467 56.8163C2.89584 56.8163 2.62701 56.6712 2.49259 56.3812C2.35817 55.9461 2.35817 55.656 2.62701 55.3659C3.70234 54.2056 4.77767 53.0453 5.853 51.885C6.65949 51.0148 7.33158 50.2896 8.13807 49.4194C8.40691 49.2744 8.54132 49.1293 8.81016 48.9843Z" fill="#FF0000"/>
<path d="M7.60032 43.0378C8.2724 43.0378 8.67565 43.763 8.40682 44.1981C8.2724 44.3431 8.2724 44.4882 8.13798 44.6332C6.39057 46.5187 4.64316 48.4042 2.89575 50.2897L2.76133 50.4347C2.35808 50.7248 1.95483 50.8698 1.686 50.4347C1.41717 50.1446 1.41717 49.5645 1.686 49.2744C3.03016 47.824 4.37433 46.3737 5.71849 44.9233C6.25615 44.3431 6.6594 43.908 7.19707 43.4729C7.33148 43.1828 7.60032 43.0378 7.60032 43.0378Z" fill="#FF0000"/>
<path d="M15.1282 51.16C15.1282 51.305 14.9938 51.4501 14.8593 51.7401C12.9775 53.7707 11.2301 55.6561 9.34828 57.6867C8.94503 58.1218 8.54178 58.1218 8.13853 57.6867C7.8697 57.3966 7.8697 56.8164 8.27295 56.5264C10.1548 54.4959 11.9022 52.6104 13.784 50.5799C14.0528 50.2898 14.3217 50.1447 14.7249 50.2898C14.9938 50.4348 15.1282 50.5799 15.1282 51.16Z" fill="#FF0000"/>
</svg>
