<svg width="40" height="40" viewBox="0 0 40 40" fill="none" xmlns="http://www.w3.org/2000/svg">
<g clip-path="url(#clip0_1804_24228)">
<path d="M11.5152 21.8186C11.513 21.1659 11.4954 20.5342 11.4925 19.9297C11.4517 20.5929 11.4596 21.222 11.5152 21.8186ZM21.2303 30.3458L21.2254 30.3463C21.227 30.346 21.2281 30.3463 21.2303 30.3458Z" fill="#002738"/>
<path d="M19.975 0.0195312C8.97426 0.0195312 0.0595703 8.93406 0.0595703 19.9395C0.0595703 27.2924 4.04291 33.7145 9.96929 37.1656C10.568 35.4802 11.5429 34.1068 12.7579 33.0491C13.7211 32.2024 14.8587 31.5345 16.1322 31.0775C13.8168 29.0615 13.749 28.5126 14.5442 28.5883C13.8081 28.0163 13.1835 27.3138 12.7015 26.5159C2.48942 25.7493 10.9231 5.69869 19.9887 10.4642C23.8187 8.45017 27.4975 10.8413 29.7302 14.3427C32.8119 19.1288 33.192 25.9936 27.4743 26.5072C26.952 27.3751 26.2804 28.0978 25.509 28.6762C25.9035 28.8089 25.7353 29.4569 24.3955 31.0872H24.3853C25.6551 31.5461 26.7892 32.215 27.7494 33.062C28.813 33.9916 29.6913 35.1641 30.2934 36.5761C30.2987 36.5887 30.3036 36.6018 30.3091 36.6145C30.349 36.709 30.389 36.8033 30.4265 36.9001C36.109 33.3913 39.8949 27.1079 39.8949 19.9395C39.8951 8.93406 30.9802 0.0195312 19.975 0.0195312Z" fill="#002738"/>
<path d="M30.2938 36.5769C29.6916 35.1649 28.8133 33.9926 27.7498 33.0629C28.8384 34.0231 29.7044 35.2105 30.2938 36.5769ZM12.7583 33.0501C11.5433 34.1077 10.5684 35.4811 9.96973 37.1667L9.97005 37.1668C10.5548 35.5449 11.5099 34.1474 12.7583 33.0501ZM21.2113 30.3484C21.2161 30.3484 21.2208 30.3479 21.2254 30.3469L21.2303 30.3464C21.5642 30.2766 24.7056 28.4063 25.5093 28.677C26.2806 28.0986 26.9523 27.3759 27.4746 26.508C27.2807 26.5254 27.0806 26.5364 26.8725 26.5388C28.2281 24.5721 28.9126 22.1551 28.5083 18.9844L20.0809 19.0257H19.9798V19.0252L11.58 18.9844C11.5405 19.2986 11.5114 19.614 11.4926 19.9301C11.4955 20.5346 11.5128 21.1662 11.5153 21.819C11.6869 23.6622 12.2963 25.2047 13.2158 26.5386C13.0443 26.5366 12.8729 26.5292 12.7019 26.5164C13.1839 27.3144 13.8085 28.0169 14.5446 28.5888C15.7778 28.7062 19.0866 30.3262 19.3044 30.3065C20.0764 30.4035 20.4301 30.3712 21.2113 30.3484ZM30.4248 36.9021L30.4269 36.9008C30.3896 36.804 30.3494 36.7097 30.3095 36.6152C30.3499 36.7097 30.3872 36.806 30.4248 36.9021Z" fill="#FCE9EA"/>
<path d="M30.2938 36.5765C29.7044 35.2101 28.8382 34.0227 27.7498 33.0625C26.7897 32.2155 25.6555 31.5466 24.3857 31.0877L16.1385 31.0832C16.1366 31.0814 16.1347 31.0798 16.1328 31.0781C14.8593 31.5351 13.7217 32.203 12.7585 33.0497C11.5099 34.1472 10.5549 35.5447 9.97021 37.1664C12.9102 38.8785 16.3278 39.8599 19.9754 39.8599C23.8085 39.8599 27.3874 38.7768 30.4248 36.9019C30.388 36.8056 30.3495 36.71 30.3095 36.615L30.2938 36.5765Z" fill="#004861"/>
<path d="M24.3855 31.0876H24.3957C25.7357 29.4573 25.9037 28.8094 25.5093 28.6766C24.7055 28.4059 21.564 30.2761 21.2302 30.346C21.2281 30.3465 21.227 30.3462 21.2254 30.3465C21.2207 30.3475 21.216 30.348 21.2113 30.3479C20.4302 30.371 20.0763 30.4031 19.3044 30.3064C19.0865 30.3261 15.7777 28.7061 14.5445 28.5887C13.7496 28.513 13.8172 29.0621 16.1326 31.0779C16.1344 31.0796 16.1363 31.0813 16.1382 31.0829L24.3855 31.0876Z" fill="#C9CACA"/>
<path d="M29.7302 14.345C27.4975 10.8436 23.8188 8.45254 19.9888 10.4666C23.7936 8.46632 27.4811 10.8518 29.7302 14.345Z" fill="#FF5B47"/>
<path d="M11.5149 21.8199C11.4594 21.2232 11.4513 20.5941 11.4922 19.931C11.5111 19.6227 11.5384 19.3089 11.5796 18.9853L19.9794 19.0262V10.4658H19.9886C10.923 5.70032 2.48946 25.7508 12.7014 26.5175C12.8677 26.53 13.039 26.5376 13.2152 26.5397C12.2959 25.2056 11.6864 23.6633 11.5149 21.8199Z" fill="#FF5B47"/>
<path d="M19.98 19.0276V19.0281H20.0811L28.5085 18.9867C28.9128 22.1574 28.2282 24.5744 26.8727 26.5412C27.0737 26.5386 27.2745 26.5283 27.4748 26.5104C33.1925 25.9968 32.8124 19.132 29.7307 14.3459C27.4816 10.8526 23.7941 8.46715 19.9892 10.4674H19.98V19.0276Z" fill="#EF3520"/>
</g>
<defs>
<clipPath id="clip0_1804_24228">
<rect width="40" height="40" fill="white"/>
</clipPath>
</defs>
</svg>
