<svg width="110" height="24" viewBox="0 0 110 24" fill="none" xmlns="http://www.w3.org/2000/svg">
<g clip-path="url(#clip0_1472_72196)">
<path fill-rule="evenodd" clip-rule="evenodd" d="M16.2798 7.09812C16.3628 7.26634 16.4838 7.41298 16.6331 7.52647C16.7844 7.64087 16.9595 7.7198 17.1454 7.75744L23.0041 8.94222C23.2341 8.98697 23.4465 9.09672 23.616 9.25848C23.7856 9.42024 23.9052 9.62721 23.9607 9.85487C24.0139 10.0815 24 10.3187 23.9207 10.5375C23.8414 10.7563 23.7 10.9473 23.514 11.0872L18.9555 14.5452C18.7776 14.6784 18.6402 14.8582 18.5583 15.0647C18.477 15.27 18.4548 15.494 18.4944 15.7112L19.7243 22.5569C19.7648 22.7852 19.7382 23.0203 19.6478 23.2338C19.5573 23.4473 19.407 23.63 19.2148 23.7597C19.0205 23.892 18.7931 23.9676 18.5582 23.9779C18.3233 23.9882 18.0902 23.9329 17.885 23.818L12.6184 20.8583C12.4297 20.7527 12.2171 20.6973 12.0009 20.6973C11.7846 20.6973 11.572 20.7527 11.3833 20.8583L6.11635 23.818C5.91135 23.9332 5.67823 23.9888 5.44332 23.9785C5.2084 23.9682 4.98106 23.8924 4.78694 23.7597C4.59481 23.63 4.44441 23.4473 4.35399 23.2338C4.26356 23.0203 4.23698 22.7852 4.27745 22.5569L5.50739 15.7124C5.54693 15.4952 5.52476 15.2712 5.44344 15.0659C5.36156 14.8594 5.22409 14.6796 5.04627 14.5464L0.487767 11.0884C0.3017 10.9485 0.160365 10.7575 0.0810341 10.5387C0.0017036 10.3199 -0.0121826 10.0827 0.0410364 9.85607C0.0965639 9.62848 0.216139 9.42157 0.385602 9.25983C0.555066 9.09808 0.767324 8.98828 0.99725 8.94341L6.85519 7.75864C7.04106 7.7213 7.21607 7.64233 7.36706 7.52767C7.5164 7.41408 7.63744 7.26747 7.7207 7.09931L10.8846 0.700732C10.9893 0.494608 11.149 0.321486 11.346 0.20056C11.543 0.0796337 11.7697 0.015625 12.0009 0.015625C12.232 0.015625 12.4587 0.0796337 12.6557 0.20056C12.8528 0.321486 13.0125 0.494608 13.1171 0.700732L16.2798 7.09812Z" fill="#F1C748"/>
</g>
<path d="M37.696 19V9.544H34.432V7.8H43.12V9.544H39.856V19H37.696ZM43.8529 19V10.968H45.7729L45.9649 12.456C46.1675 12.104 46.4129 11.8053 46.7009 11.56C46.9889 11.304 47.3195 11.112 47.6929 10.984C48.0769 10.8453 48.4982 10.776 48.9569 10.776V13.064H48.2369C47.9169 13.064 47.6182 13.1013 47.3409 13.176C47.0742 13.24 46.8395 13.3573 46.6369 13.528C46.4342 13.6987 46.2795 13.928 46.1729 14.216C46.0662 14.504 46.0129 14.8667 46.0129 15.304V19H43.8529ZM53.3605 19.192C52.7098 19.192 52.1498 19.0587 51.6805 18.792C51.2218 18.5147 50.8698 18.1093 50.6245 17.576C50.3898 17.0427 50.2725 16.3867 50.2725 15.608V10.968H52.4165V15.384C52.4165 16.0347 52.5498 16.5307 52.8165 16.872C53.0938 17.2027 53.5152 17.368 54.0805 17.368C54.4432 17.368 54.7632 17.288 55.0405 17.128C55.3285 16.9573 55.5525 16.712 55.7125 16.392C55.8725 16.072 55.9525 15.6827 55.9525 15.224V10.968H58.1125V19H56.2085L56.0485 17.688C55.8032 18.1467 55.4512 18.5147 54.9925 18.792C54.5445 19.0587 54.0005 19.192 53.3605 19.192ZM63.5239 19.192C62.7879 19.192 62.1479 19.0747 61.6039 18.84C61.0705 18.6053 60.6439 18.2853 60.3239 17.88C60.0145 17.464 59.8385 16.9893 59.7959 16.456H61.9399C61.9932 16.6587 62.0839 16.8453 62.2119 17.016C62.3399 17.176 62.5105 17.304 62.7239 17.4C62.9479 17.496 63.2039 17.544 63.4919 17.544C63.7799 17.544 64.0145 17.5067 64.1959 17.432C64.3772 17.3467 64.5105 17.24 64.5959 17.112C64.6919 16.9733 64.7399 16.8293 64.7399 16.68C64.7399 16.4453 64.6759 16.2693 64.5479 16.152C64.4199 16.0347 64.2279 15.9387 63.9719 15.864C63.7265 15.7893 63.4332 15.7147 63.0919 15.64C62.7185 15.5653 62.3452 15.4747 61.9719 15.368C61.6092 15.2507 61.2785 15.1067 60.9799 14.936C60.6919 14.7653 60.4625 14.5467 60.2919 14.28C60.1212 14.0133 60.0359 13.6827 60.0359 13.288C60.0359 12.8187 60.1639 12.392 60.4199 12.008C60.6759 11.624 61.0492 11.3253 61.5399 11.112C62.0305 10.888 62.6172 10.776 63.2999 10.776C64.2705 10.776 65.0385 10.9947 65.6039 11.432C66.1799 11.8693 66.5159 12.472 66.6119 13.24H64.5799C64.5265 12.984 64.3879 12.7867 64.1639 12.648C63.9399 12.5093 63.6519 12.44 63.2999 12.44C62.9159 12.44 62.6225 12.5093 62.4199 12.648C62.2279 12.7867 62.1319 12.9627 62.1319 13.176C62.1319 13.3253 62.1959 13.4587 62.3239 13.576C62.4519 13.6933 62.6385 13.7947 62.8839 13.88C63.1292 13.9547 63.4279 14.0293 63.7799 14.104C64.3985 14.232 64.9372 14.376 65.3959 14.536C65.8652 14.696 66.2332 14.9307 66.4999 15.24C66.7665 15.5387 66.8999 15.976 66.8999 16.552C66.9105 17.064 66.7772 17.5227 66.4999 17.928C66.2225 18.3227 65.8279 18.632 65.3159 18.856C64.8145 19.08 64.2172 19.192 63.5239 19.192ZM72.0939 19C71.5392 19 71.0485 18.9147 70.6219 18.744C70.1952 18.5627 69.8645 18.2693 69.6299 17.864C69.3952 17.448 69.2779 16.8827 69.2779 16.168V12.776H67.9019V10.968H69.2779L69.5339 8.776H71.4379V10.968H73.5659V12.776H71.4379V16.2C71.4379 16.5627 71.5179 16.8133 71.6779 16.952C71.8379 17.0907 72.1099 17.16 72.4939 17.16H73.5339V19H72.0939ZM75.3685 22.52V10.968H77.2885L77.5285 12.072C77.6992 11.8373 77.9018 11.624 78.1365 11.432C78.3712 11.2293 78.6485 11.0693 78.9685 10.952C79.2992 10.8347 79.6832 10.776 80.1205 10.776C80.8778 10.776 81.5445 10.9627 82.1205 11.336C82.6965 11.6987 83.1498 12.2 83.4805 12.84C83.8218 13.4693 83.9925 14.1893 83.9925 15C83.9925 15.8 83.8218 16.52 83.4805 17.16C83.1392 17.7893 82.6805 18.2853 82.1045 18.648C81.5285 19.0107 80.8725 19.192 80.1365 19.192C79.5392 19.192 79.0218 19.0853 78.5845 18.872C78.1472 18.648 77.7952 18.344 77.5285 17.96V22.52H75.3685ZM79.6245 17.304C80.0512 17.304 80.4245 17.208 80.7445 17.016C81.0752 16.824 81.3312 16.552 81.5125 16.2C81.7045 15.848 81.8005 15.448 81.8005 15C81.8005 14.5413 81.7045 14.136 81.5125 13.784C81.3312 13.432 81.0752 13.16 80.7445 12.968C80.4245 12.7653 80.0512 12.664 79.6245 12.664C79.2085 12.664 78.8352 12.7653 78.5045 12.968C78.1738 13.16 77.9178 13.432 77.7365 13.784C77.5552 14.1253 77.4645 14.5253 77.4645 14.984C77.4645 15.4427 77.5552 15.848 77.7365 16.2C77.9178 16.552 78.1738 16.824 78.5045 17.016C78.8352 17.208 79.2085 17.304 79.6245 17.304ZM85.9009 19V10.968H88.0609V19H85.9009ZM86.9889 9.848C86.5942 9.848 86.2742 9.736 86.0289 9.512C85.7835 9.27733 85.6609 8.984 85.6609 8.632C85.6609 8.28 85.7835 7.992 86.0289 7.768C86.2742 7.53333 86.5942 7.416 86.9889 7.416C87.3835 7.416 87.7035 7.53333 87.9489 7.768C88.2049 7.992 88.3329 8.28 88.3329 8.632C88.3329 8.984 88.2049 9.27733 87.9489 9.512C87.7035 9.736 87.3835 9.848 86.9889 9.848ZM90.2279 19V7.48H92.3879V19H90.2279ZM98.2859 19.192C97.5179 19.192 96.8245 19.016 96.2059 18.664C95.5979 18.3013 95.1125 17.8053 94.7499 17.176C94.3979 16.536 94.2219 15.8053 94.2219 14.984C94.2219 14.152 94.3979 13.4213 94.7499 12.792C95.1125 12.1627 95.6032 11.672 96.2219 11.32C96.8405 10.9573 97.5339 10.776 98.3019 10.776C99.0805 10.776 99.7739 10.9573 100.382 11.32C101.001 11.672 101.486 12.1627 101.838 12.792C102.201 13.4213 102.382 14.152 102.382 14.984C102.382 15.8053 102.201 16.536 101.838 17.176C101.486 17.8053 101.001 18.3013 100.382 18.664C99.7632 19.016 99.0645 19.192 98.2859 19.192ZM98.2859 17.32C98.6379 17.32 98.9525 17.2347 99.2299 17.064C99.5179 16.8933 99.7472 16.632 99.9179 16.28C100.089 15.928 100.174 15.496 100.174 14.984C100.174 14.4613 100.089 14.0293 99.9179 13.688C99.7579 13.336 99.5339 13.0747 99.2459 12.904C98.9685 12.7333 98.6539 12.648 98.3019 12.648C97.9605 12.648 97.6459 12.7333 97.3579 12.904C97.0699 13.0747 96.8405 13.336 96.6699 13.688C96.4992 14.0293 96.4139 14.4613 96.4139 14.984C96.4139 15.496 96.4992 15.928 96.6699 16.28C96.8405 16.632 97.0645 16.8933 97.3419 17.064C97.6299 17.2347 97.9445 17.32 98.2859 17.32ZM107.547 19C106.992 19 106.502 18.9147 106.075 18.744C105.648 18.5627 105.318 18.2693 105.083 17.864C104.848 17.448 104.731 16.8827 104.731 16.168V12.776H103.355V10.968H104.731L104.987 8.776H106.891V10.968H109.019V12.776H106.891V16.2C106.891 16.5627 106.971 16.8133 107.131 16.952C107.291 17.0907 107.563 17.16 107.947 17.16H108.987V19H107.547Z" fill="black" fill-opacity="0.6"/>
<defs>
<clipPath id="clip0_1472_72196">
<rect width="24" height="24" fill="white"/>
</clipPath>
</defs>
</svg>
