<svg width="54" height="29" viewBox="0 0 54 29" fill="none" xmlns="http://www.w3.org/2000/svg">
<path d="M10.1219 9.30255C9.7187 9.59262 9.44991 9.88269 8.91225 10.1728C7.56808 10.8979 6.22389 11.3331 5.01414 12.2033C2.59465 13.9437 2.59461 16.1193 5.14852 17.5696C7.70243 19.02 10.3908 20.0353 13.2135 20.6154C16.7083 21.3406 20.2032 21.6307 23.8324 22.0658C25.311 22.2108 26.7896 22.0658 28.4026 22.0658C28.4026 20.9055 28.537 19.7452 28.537 18.2948C30.15 20.3253 31.4941 22.0658 32.9727 23.8062C31.763 25.1116 30.2844 26.707 28.537 28.7375C28.537 27.2871 28.4026 26.2719 28.4026 25.2566C24.5045 24.9665 20.6064 24.6765 16.8428 24.2413C12.407 23.6612 8.1057 22.791 4.07321 20.4704C2.3258 19.4551 0.30957 18.2948 0.30957 15.8292C0.30957 13.2185 2.3258 12.0582 4.07321 11.043C5.82062 10.0277 7.7025 9.44758 9.58433 8.57736C9.85316 8.86744 9.98753 9.15751 10.1219 9.30255Z" fill="#FF0000"/>
<path d="M35.5264 24.5313C35.2576 21.6305 35.2575 21.7756 37.4082 21.3405C40.903 20.4702 44.3978 19.455 47.7583 18.2947C49.2368 17.8596 50.7154 16.6993 50.7154 14.8138C50.7154 12.9283 49.1025 12.2031 47.8927 11.478C46.9518 10.8978 46.0108 10.6077 45.0699 10.1726C44.6667 10.0276 44.3979 9.59248 44.2635 9.01233C47.4895 9.73751 50.4466 10.6077 52.8661 13.2184C54.3446 14.8138 54.3446 16.6993 52.8661 18.2947C52.0596 19.1649 51.1187 19.8901 50.0434 20.4702C45.6076 22.9359 40.6342 23.8061 35.5264 24.5313Z" fill="#FF0000"/>
<path d="M44.667 0.1651C43.3229 0.1651 42.2476 1.3254 42.2476 2.77576C42.2476 4.22613 43.3229 5.38643 44.667 5.38643C46.0112 5.38643 47.0865 4.22613 47.0865 2.77576C47.0865 1.3254 46.0112 0.1651 44.667 0.1651ZM44.667 3.79102C44.1294 3.79102 43.5917 3.35591 43.5917 2.63073C43.5917 2.05058 43.995 1.47043 44.667 1.47043C45.2047 1.47043 45.7423 1.90554 45.7423 2.63073C45.7423 3.35591 45.2047 3.79102 44.667 3.79102Z" fill="#FF0000"/>
<path d="M20.6066 11.1878C20.6066 13.6534 18.8592 15.5389 16.4397 15.5389C14.1546 15.5389 12.4072 13.7984 12.4072 11.3328H14.4235C14.5579 12.6382 15.3644 13.5084 16.5741 13.5084C17.7838 13.5084 18.7248 12.4931 18.7248 11.0427C18.7248 9.59237 17.7839 8.72215 16.3053 8.72215H14.8267V8.28704L17.3806 4.08098H12.8105V2.1955H20.3378V2.63061L17.6495 7.12675C19.2625 7.56186 20.6066 9.15726 20.6066 11.1878Z" fill="#FF0000"/>
<path d="M31.225 11.0428C31.225 13.6534 29.3431 15.6839 26.7892 15.6839C24.1009 15.6839 22.3535 13.7985 22.3535 11.0428C22.3535 9.88247 22.7568 8.4321 23.6977 6.69166L26.1172 2.05048H28.2678C26.7892 4.80618 26.2516 5.96647 25.7139 6.98173C26.2516 6.83669 26.6548 6.69166 27.1925 6.69166C29.3431 6.69166 31.225 8.4321 31.225 11.0428ZM29.2087 11.0428C29.2087 9.44736 28.1334 8.4321 26.7892 8.4321C25.3107 8.4321 24.3698 9.44736 24.3698 11.0428C24.3698 12.4931 25.4451 13.6534 26.7892 13.6534C28.1334 13.6534 29.2087 12.4931 29.2087 11.0428Z" fill="#FF0000"/>
<path d="M32.5693 8.72219C32.5693 4.51612 34.4511 1.90546 37.4083 1.90546C40.3654 1.90546 42.2473 4.51612 42.2473 8.72219C42.2473 12.9283 40.3654 15.5389 37.4083 15.5389C34.4511 15.5389 32.5693 12.9283 32.5693 8.72219ZM40.2311 8.72219C40.2311 5.67641 39.1557 3.93597 37.4083 3.93597C35.6609 3.93597 34.5856 5.67641 34.5856 8.72219C34.5856 11.768 35.6609 13.5084 37.4083 13.5084C39.1557 13.6534 40.2311 11.768 40.2311 8.72219Z" fill="#FF0000"/>
</svg>
