<svg width="45" height="59" viewBox="0 0 45 59" fill="none" xmlns="http://www.w3.org/2000/svg">
<path d="M18.5911 40.3316C18.0535 40.4767 17.6502 40.6217 17.247 40.9118C16.7093 40.0415 16.3061 39.0263 15.7684 38.3011C14.8275 36.8507 13.7522 35.5454 12.8112 34.095C11.3327 31.9195 10.1229 29.7439 9.58526 26.9882C8.37552 20.1715 11.8703 13.4998 17.919 10.8891C25.8496 7.40825 34.9899 13.2097 36.1997 22.347C36.7373 26.5531 35.5276 30.034 33.3769 33.3699C32.436 34.8202 31.2263 36.2706 30.2854 37.866C29.6133 38.8813 29.2101 39.8965 28.538 40.9118C28.2691 41.3469 28.0003 41.782 27.597 41.927C24.5055 43.2324 21.4139 44.3927 18.3223 45.553C17.9191 45.698 17.6502 45.5529 17.5158 45.2629C17.3814 44.8278 17.3814 44.3927 17.7847 44.2476C18.0535 44.1026 18.3223 43.9575 18.5911 43.9575C21.2795 42.9423 23.9678 41.927 26.6561 40.7667C26.9249 40.6217 27.1938 40.3316 27.3282 40.0415C28.4035 37.866 29.7477 36.1256 31.0919 34.095C32.436 32.2096 33.6458 30.4691 34.1834 28.1485C35.5276 23.5073 34.5867 19.4463 31.6295 15.9654C28.2691 11.9044 23.9678 10.5991 19.1288 12.1945C14.2898 13.7899 11.6015 17.4158 10.6606 22.7822C9.9885 26.5531 11.1982 29.7439 13.2145 32.6447C14.4242 34.3851 15.634 36.1256 16.8437 37.866C17.6502 38.4461 18.0535 39.3164 18.5911 40.3316Z" fill="#FF0000"/>
<path d="M17.9189 54.6902C17.7844 54.5452 17.5156 54.4001 17.5156 54.1101C17.5156 53.82 17.6501 53.5299 17.7845 53.2398C17.7845 53.0948 18.0533 53.0948 18.1877 53.0948C21.1449 51.9345 24.2365 50.7742 27.1936 49.6139C27.8657 49.3239 28.1345 49.4689 28.2689 49.904C28.4033 50.3391 28.1345 50.7742 27.5968 51.0643C24.5053 52.2246 21.5481 53.3849 18.4566 54.6902C18.3221 54.5452 18.1877 54.5452 17.9189 54.6902Z" fill="#FF0000"/>
<path d="M17.9189 49.9041C17.7844 49.7591 17.5156 49.614 17.5156 49.324C17.5156 49.0339 17.6501 48.7438 17.7845 48.4537C17.7845 48.3087 18.0533 48.3087 18.1877 48.3087C21.1449 47.1484 24.2365 45.9881 27.1936 44.8278C27.8657 44.5377 28.1345 44.6828 28.2689 45.1179C28.4033 45.553 28.2689 45.9881 27.5968 46.2782C24.5053 47.4385 21.5481 48.7438 18.4566 49.9041C18.3221 49.9041 18.1877 49.9041 17.9189 49.9041Z" fill="#FF0000"/>
<path d="M27.5971 53.9652C26.6562 57.4461 21.414 59.4766 18.188 57.5911C21.2796 56.4308 24.3711 55.1255 27.5971 53.9652Z" fill="#FF0000"/>
<path d="M23.5649 3.20222C23.5649 3.78236 23.5649 4.36251 23.5649 4.94266C23.5649 5.37777 23.296 5.66784 22.8928 5.66784C22.4895 5.66784 22.2207 5.37777 22.2207 4.94266C22.2207 3.78236 22.2207 2.62207 22.2207 1.31674C22.2207 0.881626 22.4895 0.591553 22.8928 0.591553C23.296 0.591553 23.5649 0.881626 23.5649 1.31674C23.5649 1.89688 23.5649 2.62207 23.5649 3.20222Z" fill="#FF0000"/>
<path d="M3.26762 23.5074C3.80529 23.5074 4.34297 23.5074 4.88063 23.5074C5.4183 23.5074 5.68714 23.7975 5.68714 24.2326C5.68714 24.6677 5.4183 24.9578 4.88063 24.9578C3.8053 24.9578 2.72998 24.9578 1.65465 24.9578C1.11699 24.9578 0.848145 24.6677 0.848145 24.2326C0.848145 23.7975 1.11699 23.5074 1.65465 23.5074C2.19232 23.5074 2.72996 23.5074 3.26762 23.5074Z" fill="#FF0000"/>
<path d="M42.517 25.1028C41.9794 25.1028 41.4417 25.1028 40.904 25.1028C40.5008 25.1028 40.2319 24.8128 40.2319 24.3777C40.2319 23.9425 40.5008 23.6525 40.904 23.6525C41.9793 23.6525 43.1891 23.6525 44.2644 23.6525C44.6677 23.6525 44.9365 23.9425 44.9365 24.3777C44.9365 24.8128 44.6677 25.1028 44.2644 25.1028C43.5923 25.1028 43.0547 25.1028 42.517 25.1028Z" fill="#FF0000"/>
<path d="M7.56907 6.97327C7.8379 7.1183 7.97231 7.26334 8.10672 7.40838C8.91322 8.2786 9.58532 9.00378 10.3918 9.874C10.7951 10.3091 10.7951 10.5992 10.3918 11.0343C10.123 11.3244 9.71971 11.3244 9.31646 11.0343C8.50996 10.1641 7.70349 9.43889 7.03141 8.56867C6.89699 8.42364 6.76257 7.98852 6.89698 7.69845C7.0314 7.26334 7.43465 7.1183 7.56907 6.97327Z" fill="#FF0000"/>
<path d="M35.6622 37.2859C35.931 37.431 36.0654 37.576 36.1998 37.721C37.0063 38.4462 37.6784 39.3164 38.4849 40.0416C38.8882 40.4767 38.8882 40.9118 38.6194 41.2019C38.3505 41.492 37.9472 41.492 37.544 41.0569C36.7375 40.1867 36.0654 39.4615 35.2589 38.5913C35.1245 38.4462 34.9901 38.0111 35.1245 37.721C35.1245 37.576 35.3933 37.431 35.6622 37.2859Z" fill="#FF0000"/>
<path d="M38.8881 7.84349C38.7537 8.13356 38.6193 8.2786 38.4849 8.42364C37.6784 9.29386 37.0063 10.019 36.1998 10.8893C35.931 11.1793 35.5277 11.3244 35.1245 10.8893C34.8556 10.5992 34.8556 10.1641 35.1245 9.72897C35.931 8.85875 36.603 7.98852 37.4095 7.26334C37.5439 7.1183 37.9472 6.97327 38.216 7.1183C38.4849 7.26334 38.6193 7.69845 38.8881 7.84349Z" fill="#FF0000"/>
<path d="M7.56908 41.492C7.43466 41.347 7.16584 41.2019 7.03142 40.9118C6.897 40.7668 7.03142 40.3317 7.03142 40.1867C7.83792 39.3164 8.64441 38.3012 9.58532 37.431C9.85415 37.1409 10.2574 37.1409 10.5262 37.431C10.795 37.721 10.795 38.1562 10.5262 38.4462C9.71971 39.3164 8.91323 40.1867 8.10673 41.0569C7.97232 41.347 7.83791 41.492 7.56908 41.492Z" fill="#FF0000"/>
</svg>
